<svg width="25" height="24" viewBox="0 0 25 24" fill="none" xmlns="http://www.w3.org/2000/svg">
<path fillRule="evenodd" clip-rule="evenodd" d="M10.988 3.788C11.9724 2.8034 13.3077 2.25016 14.7 2.25H17.4C17.5989 2.25 17.7897 2.32902 17.9303 2.46967C18.071 2.61032 18.15 2.80109 18.15 3V6.6C18.15 6.79891 18.071 6.98968 17.9303 7.13033C17.7897 7.27098 17.5989 7.35 17.4 7.35H14.7C14.6803 7.35 14.6608 7.35388 14.6426 7.36142C14.6244 7.36896 14.6079 7.38 14.5939 7.39393C14.58 7.40786 14.569 7.4244 14.5614 7.4426C14.5539 7.4608 14.55 7.4803 14.55 7.5V9.45H17.4C17.514 9.44994 17.6266 9.47587 17.729 9.52583C17.8315 9.57579 17.9213 9.64846 17.9915 9.73832C18.0617 9.82817 18.1104 9.93285 18.1341 10.0444C18.1578 10.1559 18.1557 10.2714 18.128 10.382L17.228 13.982C17.1874 14.1443 17.0937 14.2884 16.9618 14.3913C16.8299 14.4942 16.6673 14.5501 16.5 14.55H14.55V21C14.55 21.1989 14.471 21.3897 14.3303 21.5303C14.1897 21.671 13.9989 21.75 13.8 21.75H10.2C10.0011 21.75 9.81032 21.671 9.66967 21.5303C9.52902 21.3897 9.45 21.1989 9.45 21V14.55H7.5C7.30109 14.55 7.11032 14.471 6.96967 14.3303C6.82902 14.1897 6.75 13.9989 6.75 13.8V10.2C6.75 10.1015 6.7694 10.004 6.80709 9.91299C6.84478 9.82199 6.90003 9.73931 6.96967 9.66967C7.03931 9.60003 7.12199 9.54478 7.21299 9.50709C7.30398 9.4694 7.40151 9.45 7.5 9.45H9.45V7.5C9.45016 6.10768 10.0034 4.77244 10.988 3.788ZM14.7 3.75C13.7054 3.75 12.7516 4.14509 12.0483 4.84835C11.3451 5.55161 10.95 6.50544 10.95 7.5V10.2C10.95 10.3989 10.871 10.5897 10.7303 10.7303C10.5897 10.871 10.3989 10.95 10.2 10.95H8.25V13.05H10.2C10.3989 13.05 10.5897 13.129 10.7303 13.2697C10.871 13.4103 10.95 13.6011 10.95 13.8V20.25H13.05V13.8C13.05 13.6011 13.129 13.4103 13.2697 13.2697C13.4103 13.129 13.6011 13.05 13.8 13.05H15.914L16.439 10.95H13.8C13.6011 10.95 13.4103 10.871 13.2697 10.7303C13.129 10.5897 13.05 10.3989 13.05 10.2V7.5C13.05 7.06239 13.2238 6.64271 13.5333 6.33327C13.8427 6.02384 14.2624 5.85 14.7 5.85H16.65V3.75H14.7Z" fill="#262626"/>
</svg>
