<svg width="25" height="24" viewBox="0 0 25 24" fill="none" xmlns="http://www.w3.org/2000/svg">
<path d="M16.5 7C16.5 6.73478 16.6054 6.48043 16.7929 6.29289C16.9804 6.10536 17.2348 6 17.5 6C17.7652 6 18.0196 6.10536 18.2071 6.29289C18.3946 6.48043 18.5 6.73478 18.5 7C18.5 7.26522 18.3946 7.51957 18.2071 7.70711C18.0196 7.89464 17.7652 8 17.5 8C17.2348 8 16.9804 7.89464 16.7929 7.70711C16.6054 7.51957 16.5 7.26522 16.5 7Z" fill="#262626"/>
<path fill-rule="evenodd" clip-rule="evenodd" d="M12.5 7.25C11.2402 7.25 10.032 7.75045 9.14124 8.64124C8.25045 9.53204 7.75 10.7402 7.75 12C7.75 13.2598 8.25045 14.468 9.14124 15.3588C10.032 16.2496 11.2402 16.75 12.5 16.75C13.7598 16.75 14.968 16.2496 15.8588 15.3588C16.7496 14.468 17.25 13.2598 17.25 12C17.25 10.7402 16.7496 9.53204 15.8588 8.64124C14.968 7.75045 13.7598 7.25 12.5 7.25ZM9.25 12C9.25 11.138 9.59241 10.3114 10.2019 9.7019C10.8114 9.09241 11.638 8.75 12.5 8.75C13.362 8.75 14.1886 9.09241 14.7981 9.7019C15.4076 10.3114 15.75 11.138 15.75 12C15.75 12.862 15.4076 13.6886 14.7981 14.2981C14.1886 14.9076 13.362 15.25 12.5 15.25C11.638 15.25 10.8114 14.9076 10.2019 14.2981C9.59241 13.6886 9.25 12.862 9.25 12Z" fill="#262626"/>
<path fill-rule="evenodd" clip-rule="evenodd" d="M17.758 2.83303C14.2634 2.44563 10.7366 2.44563 7.24199 2.83303C5.22999 3.05803 3.60499 4.64303 3.36899 6.66503C2.95439 10.2096 2.95439 13.7904 3.36899 17.335C3.60499 19.357 5.22899 20.942 7.24199 21.167C10.7366 21.554 14.2633 21.554 17.758 21.167C19.77 20.942 21.395 19.357 21.631 17.335C22.0457 13.7905 22.0457 10.2096 21.631 6.66503C21.395 4.64303 19.771 3.05803 17.758 2.83303ZM7.40799 4.32303C10.7923 3.94791 14.2077 3.94791 17.592 4.32303C18.922 4.47303 19.987 5.52203 20.142 6.84003C20.5429 10.2684 20.5429 13.7317 20.142 17.16C20.0618 17.8051 19.7665 18.4043 19.3038 18.8608C18.8411 19.3173 18.2381 19.6045 17.592 19.676C14.2077 20.0512 10.7923 20.0512 7.40799 19.676C6.76194 19.6045 6.15885 19.3173 5.69615 18.8608C5.23345 18.4043 4.93817 17.8051 4.85799 17.16C4.45704 13.7317 4.45704 10.2684 4.85799 6.84003C4.93817 6.19499 5.23345 5.59581 5.69615 5.13929C6.15885 4.68276 6.76194 4.39454 7.40799 4.32303Z" fill="#262626"/>
</svg>
