<svg width="25" height="24" viewBox="0 0 25 24" fill="none" xmlns="http://www.w3.org/2000/svg">
<g clip-path="url(#clip0_264_582)">
<path fill-rule="evenodd" clip-rule="evenodd" d="M23.905 16.8648C23.361 15.7693 22.6442 14.7684 21.782 13.9008C21.4936 13.5749 21.1917 13.2613 20.877 12.9608L20.839 12.9238C20.7222 12.8107 20.6068 12.696 20.493 12.5798C21.6716 10.9406 22.6802 9.18551 23.503 7.3418L23.536 7.2678L23.559 7.1898C23.668 6.8268 23.792 6.1368 23.352 5.5128C22.896 4.8688 22.167 4.7528 21.678 4.7528H19.431C18.9605 4.73136 18.4953 4.8593 18.1019 5.11831C17.7086 5.37732 17.4072 5.75413 17.241 6.1948C16.7574 7.34644 16.152 8.44302 15.435 9.4658V6.8328C15.435 6.4928 15.403 5.9228 15.038 5.4428C14.602 4.8668 13.971 4.7528 13.533 4.7528H9.967C9.50167 4.7421 9.05005 4.91076 8.70567 5.22388C8.36128 5.53699 8.15051 5.97056 8.117 6.4348L8.114 6.4798V6.5248C8.114 7.0098 8.306 7.3678 8.46 7.5928C8.529 7.6938 8.602 7.7858 8.649 7.8438L8.659 7.8568C8.709 7.9188 8.742 7.9598 8.775 8.0058C8.863 8.1238 8.988 8.3078 9.024 8.7818V10.2548C8.30818 9.05612 7.72124 7.78504 7.273 6.4628L7.265 6.4408L7.257 6.4198C7.135 6.1008 6.94 5.6368 6.549 5.2828C6.093 4.8678 5.553 4.7528 5.062 4.7528H2.782C2.285 4.7528 1.686 4.8688 1.239 5.3398C0.8 5.8038 0.75 6.3598 0.75 6.6538V6.7878L0.778 6.9178C1.4093 9.84858 2.71024 12.5935 4.579 14.9378C5.43338 16.2851 6.59329 17.4121 7.96465 18.2273C9.33601 19.0425 10.8802 19.523 12.472 19.6298L12.513 19.6328H12.555C13.281 19.6328 14.038 19.5698 14.607 19.1908C15.374 18.6788 15.435 17.8938 15.435 17.5018V16.3638C15.632 16.5238 15.876 16.7378 16.175 17.0258C16.537 17.3878 16.825 17.7018 17.072 17.9758L17.204 18.1218C17.396 18.3358 17.585 18.5468 17.757 18.7198C17.973 18.9368 18.24 19.1758 18.574 19.3528C18.937 19.5438 19.318 19.6308 19.722 19.6308H22.003C22.484 19.6308 23.173 19.5168 23.658 18.9548C24.186 18.3428 24.146 17.5918 23.98 17.0528L23.95 16.9558L23.905 16.8648ZM18.185 16.9708C17.8751 16.6244 17.556 16.2862 17.228 15.9568L17.225 15.9538C15.868 14.6458 15.235 14.4188 14.787 14.4188C14.548 14.4188 14.285 14.4448 14.114 14.6588C14.037 14.7609 13.9865 14.8804 13.967 15.0068C13.9429 15.1535 13.9322 15.3021 13.935 15.4508V17.5018C13.935 17.7568 13.893 17.8638 13.775 17.9418C13.618 18.0468 13.283 18.1318 12.564 18.1318C11.1982 18.0389 9.87398 17.6231 8.70018 16.9187C7.52637 16.2143 6.53652 15.2413 5.812 14.0798L5.804 14.0668L5.794 14.0548C4.05312 11.888 2.83984 9.34605 2.25 6.6298C2.254 6.4998 2.282 6.4208 2.328 6.3728C2.375 6.3228 2.49 6.2528 2.782 6.2528H5.062C5.315 6.2528 5.447 6.3088 5.542 6.3938C5.648 6.4918 5.742 6.6568 5.854 6.9508C6.414 8.5968 7.17 10.1368 7.887 11.2688C8.245 11.8338 8.597 12.3048 8.915 12.6378C9.074 12.8038 9.229 12.9418 9.378 13.0398C9.521 13.1338 9.684 13.2088 9.852 13.2088C9.94 13.2088 10.043 13.1988 10.142 13.1558C10.2489 13.1086 10.3369 13.0269 10.392 12.9238C10.495 12.7358 10.524 12.4588 10.524 12.0958V8.7228C10.471 7.9048 10.224 7.4438 9.984 7.1168C9.9354 7.0514 9.88538 6.98705 9.834 6.9238L9.821 6.9078C9.77836 6.85601 9.73766 6.80264 9.699 6.7478C9.64977 6.68665 9.62015 6.61207 9.614 6.5338C9.62185 6.45434 9.65976 6.38088 9.71999 6.32846C9.78022 6.27603 9.85821 6.24861 9.938 6.2518H13.533C13.739 6.2518 13.808 6.3018 13.843 6.3488C13.893 6.4138 13.935 6.5488 13.935 6.8328V11.3608C13.935 11.8988 14.183 12.2628 14.543 12.2628C14.957 12.2628 15.256 12.0118 15.778 11.4898L15.787 11.4798L15.795 11.4708C16.966 10.0431 17.9227 8.45238 18.635 6.7488L18.639 6.7368C18.6925 6.58629 18.7938 6.45742 18.9274 6.36985C19.061 6.28228 19.2196 6.24082 19.379 6.2518H21.679C21.991 6.2518 22.093 6.3318 22.127 6.3788C22.162 6.4288 22.187 6.5358 22.127 6.7458C21.3056 8.58216 20.2901 10.3254 19.098 11.9458L19.09 11.9578C18.975 12.1348 18.848 12.3308 18.83 12.5548C18.81 12.7968 18.914 13.0158 19.097 13.2518C19.23 13.4478 19.505 13.7168 19.784 13.9898L19.81 14.0158C20.102 14.3018 20.419 14.6118 20.673 14.9118L20.68 14.9188L20.687 14.9268C21.4444 15.6823 22.0743 16.5556 22.552 17.5128C22.628 17.7728 22.582 17.9068 22.522 17.9758C22.453 18.0558 22.298 18.1308 22.004 18.1308H19.722C19.5665 18.1346 19.4126 18.0984 19.275 18.0258C19.1064 17.9277 18.9534 17.8051 18.821 17.6618C18.678 17.5188 18.523 17.3458 18.333 17.1348L18.185 16.9708Z" fill="#262626"/>
</g>
<defs>
<clipPath id="clip0_264_582">
<rect width="24" height="24" fill="white" transform="translate(0.5)"/>
</clipPath>
</defs>
</svg>
