<svg width="28" height="20" viewBox="0 0 28 20" fill="none" xmlns="http://www.w3.org/2000/svg">
<g clip-path="url(#clip0_2003_1066)">
<path d="M0 3.12231V6.15385H4.37733L0 3.12231ZM3.62756 20H10.1111V15.51L3.62756 20ZM17.8889 15.5108V20H24.3717L17.8889 15.5108ZM0 13.8462V16.8777L4.37889 13.8462H0ZM24.3732 0H17.8889V4.49L24.3732 0ZM28 16.8785V13.8462H23.6203L28 16.8785ZM28 6.15385V3.12231L23.6219 6.15385H28ZM10.1111 0H3.62756L10.1111 4.49V0Z" fill="#00247D"/>
<path d="M19.5533 13.8462L27.1071 19.0777C27.476 18.7019 27.7411 18.2386 27.8771 17.7323L22.2654 13.8462H19.5533ZM10.1111 13.8462H8.44585L0.892848 19.077C1.29807 19.4847 1.81763 19.7762 2.40018 19.9116L10.1111 14.5716V13.8462ZM17.8888 6.15389H19.5541L27.1071 0.923116C26.6949 0.509482 26.1725 0.22006 25.6005 0.088501L17.8888 5.4285V6.15389ZM8.44585 6.15389L0.892848 0.923116C0.524145 1.29925 0.258815 1.76238 0.12207 2.2685L5.73374 6.15389H8.44585Z" fill="#CF1B2B"/>
<path d="M28 12.3077H16.3333V20H17.8889V15.5108L24.3717 20H24.8889C25.3021 20.0001 25.7112 19.9185 26.0921 19.7601C26.473 19.6018 26.8181 19.3697 27.1071 19.0777L19.5533 13.8462H22.2654L27.8771 17.7323C27.9494 17.4731 28 17.2046 28 16.9231V16.8785L23.6203 13.8462H28V12.3077ZM0 12.3077V13.8462H4.37889L0 16.8777V16.9231C0 17.7623 0.341444 18.5215 0.892889 19.0769L8.44589 13.8462H10.1111V14.5715L2.40022 19.9108C2.62889 19.9646 2.86533 20 3.11111 20H3.62756L10.1111 15.51V20H11.6667V12.3077H0ZM28 3.07692C28.0005 2.27076 27.6797 1.49689 27.1071 0.923077L19.5541 6.15385H17.8889V5.42846L25.6006 0.0884617C25.3676 0.0319442 25.1288 0.00226004 24.8889 2.9106e-07H24.3732L17.8889 4.49V2.9106e-07H16.3333V7.69231H28V6.15385H23.6219L28 3.12231V3.07692ZM10.1111 2.9106e-07V4.49L3.62756 2.9106e-07H3.11111C2.69782 -0.000177825 2.28866 0.081395 1.90772 0.239919C1.52677 0.398444 1.18173 0.630718 0.892889 0.923077L8.44589 6.15385H5.73378L0.122111 2.26846C0.0449401 2.53132 0.00386821 2.80324 0 3.07692L0 3.12231L4.37733 6.15385H0V7.69231H11.6667V2.9106e-07H10.1111Z" fill="#EEEEEE"/>
<path d="M16.3333 7.69231V0H11.6667V7.69231H0V12.3077H11.6667V20H16.3333V12.3077H28V7.69231H16.3333Z" fill="#CF1B2B"/>
</g>
<defs>
<clipPath id="clip0_2003_1066">
<rect width="28" height="20" rx="4" fill="white"/>
</clipPath>
</defs>
</svg>
