<svg width="28" height="20" viewBox="0 0 28 20" fill="none" xmlns="http://www.w3.org/2000/svg">
<g clip-path="url(#clip0_2003_863)">
<path d="M28 16.9231C28 17.7392 27.6722 18.5218 27.0888 19.0988C26.5053 19.6759 25.714 20 24.8889 20H3.11111C2.28599 20 1.49467 19.6759 0.911223 19.0988C0.327777 18.5218 0 17.7392 0 16.9231V13.8462H28V16.9231Z" fill="#CE2028"/>
<path d="M0 6.15381H28V13.8461H0V6.15381Z" fill="#22408C"/>
<path d="M24.8889 0H3.11111C2.28599 0 1.49467 0.324175 0.911223 0.90121C0.327777 1.47824 0 2.26087 0 3.07692L0 6.15385H28V3.07692C28 2.26087 27.6722 1.47824 27.0888 0.90121C26.5053 0.324175 25.714 0 24.8889 0Z" fill="#EEEEEE"/>
</g>
<defs>
<clipPath id="clip0_2003_863">
<rect width="28" height="20" rx="4" fill="white"/>
</clipPath>
</defs>
</svg>
