<svg width="50" height="50" viewBox="0 0 50 50" fill="none" xmlns="http://www.w3.org/2000/svg">
<path fillRule="evenodd" clip-rule="evenodd" d="M40 40.6668C36.2333 39.589 28.7667 41.1446 25 38.4446C21.2333 41.1446 13.7667 39.589 10 40.6668C10 40.6668 8.16668 41.2668 6.66668 42.889C7.42223 43.9668 8.50001 43.989 10 43.4446C13.7667 42.3668 21.2333 43.9557 25 42.3335C28.7667 43.9557 36.2333 42.3668 40 43.4446C41.5 43.989 42.5778 43.9668 43.3333 42.889C41.8333 41.2668 40 40.6668 40 40.6668Z" fill="#401D09" stroke="#401D09" stroke-width="1.5" stroke-linejoin="round"/>
<path fillRule="evenodd" clip-rule="evenodd" d="M33.3333 36.2224C30.5556 39.0002 19.4445 39.0002 16.6667 36.2224C16.1111 34.5557 16.6667 34.0002 16.6667 34.0002C16.6667 31.2224 19.4445 29.5557 19.4445 29.5557C13.3333 27.8891 12.7778 16.7779 25 12.3335C37.2222 16.7779 36.6667 27.8891 30.5556 29.5557C30.5556 29.5557 33.3333 31.2224 33.3333 34.0002C33.3333 34.0002 33.8889 34.5557 33.3333 36.2224Z" fill="#401D09" stroke="#401D09" stroke-width="1.5" stroke-linejoin="round"/>
<path fillRule="evenodd" clip-rule="evenodd" d="M22.2222 9.55561C22.2222 10.2923 22.5149 10.9989 23.0358 11.5198C23.5568 12.0407 24.2633 12.3334 25 12.3334C25.7367 12.3334 26.4433 12.0407 26.9642 11.5198C27.4851 10.9989 27.7778 10.2923 27.7778 9.55561C27.7778 8.8189 27.4851 8.11236 26.9642 7.59142C26.4433 7.07049 25.7367 6.77783 25 6.77783C24.2633 6.77783 23.5568 7.07049 23.0358 7.59142C22.5149 8.11236 22.2222 8.8189 22.2222 9.55561Z" fill="#401D09" stroke="#401D09" stroke-width="1.5" stroke-linejoin="round"/>
<path fillRule="evenodd" clip-rule="evenodd" d="M30.5556 29.5556H19.4445ZM33.3333 34H16.6667ZM25 17.8889V23.4445ZM27.7778 20.6667H22.2222Z" fill="white"/>
<path d="M30.5556 29.5556H19.4445M33.3333 34H16.6667M25 17.8889V23.4445M27.7778 20.6667H22.2222" stroke="white" stroke-width="1.5" stroke-linecap="round"/>
</svg>
