<svg width="50" height="50" viewBox="0 0 50 50" fill="none" xmlns="http://www.w3.org/2000/svg">
<path d="M25 12.9223V6.66675" stroke="#262626" stroke-width="1.5" stroke-linecap="round"/>
<path fillRule="evenodd" clip-rule="evenodd" d="M25 27.7779C25 27.7779 20 19.4446 21.6667 16.1113C21.6667 16.1113 22.7778 13.3335 25 13.3335C27.2222 13.3335 28.3333 16.1113 28.3333 16.1113C30 19.4446 25 27.7779 25 27.7779Z" fill="#401D09" stroke="#401D09" stroke-width="1.5"/>
<path fillRule="evenodd" clip-rule="evenodd" d="M36.1111 41.1111C30 45 20 45 13.8889 41.1111V33.3334C13.8889 33.3334 3.88888 28.3334 7.22221 21.6667C11.6667 14.4445 22.2222 17.7778 25 26.1111C27.7778 17.7778 38.3333 14.4445 42.7778 21.6667C46.1111 28.3334 36.1111 33.3334 36.1111 33.3334V41.1111Z" fill="#401D09"/>
<path d="M25 26.1111C22.2222 17.7778 11.6667 14.4445 7.22221 21.6667C3.88888 28.3334 13.8889 33.3334 13.8889 33.3334V41.1111C20 45 30 45 36.1111 41.1111V33.3334C36.1111 33.3334 46.1111 28.3334 42.7778 21.6667C38.3333 14.4445 27.7778 17.7778 25 26.1111ZM25 26.1111V30" stroke="#401D09" stroke-width="1.5" stroke-linecap="round" stroke-linejoin="round"/>
<path d="M27.7778 8.88892H22.2222" stroke="#401D09" stroke-width="1.5" stroke-linecap="round"/>
<path d="M14.4444 32.7778C14.4444 32.7778 4.99999 28.3334 7.74443 22.0556C12.0555 15.5556 22.2222 20 25 27.2223M25 27.2223V29.5556M25 27.2223C27.7778 20 37.9444 15.5556 42.2555 22.0556C45 28.3334 35.5555 32.7778 35.5555 32.7778" stroke="white" stroke-width="1.5" stroke-linecap="round" stroke-linejoin="round"/>
<path d="M36.1111 33.3335C30 30.0002 20 30.0002 13.8889 33.3335M36.1111 37.2224C30 33.8891 20 33.8891 13.8889 37.2224M36.1111 41.1113C30 37.7779 20 37.7779 13.8889 41.1113" stroke="white" stroke-width="1.5" stroke-linecap="round" stroke-linejoin="round"/>
</svg>
