<svg width="28" height="20" viewBox="0 0 28 20" fill="none" xmlns="http://www.w3.org/2000/svg">
<g clip-path="url(#clip0_2004_1423)">
<path d="M28 16.9231C28 17.7391 27.6722 18.5218 27.0888 19.0988C26.5053 19.6758 25.714 20 24.8889 20H3.11111C2.28599 20 1.49467 19.6758 0.911223 19.0988C0.327777 18.5218 0 17.7391 0 16.9231V3.07692C0 2.26087 0.327777 1.47824 0.911223 0.90121C1.49467 0.324175 2.28599 0 3.11111 0H24.8889C25.714 0 26.5053 0.324175 27.0888 0.90121C27.6722 1.47824 28 2.26087 28 3.07692V16.9231Z" fill="#29AE66"/>
<path d="M3.11133 0H8.55577V20H3.11133V0Z" fill="#CA3745"/>
<path d="M3.11133 2.54769L3.73744 3.16692L3.56711 3.33539L3.81599 3.58154L3.98011 3.41923L4.49655 3.93L3.98633 4.43538L3.77399 4.22462L3.54844 4.44692L3.73744 4.63308L3.11133 5.18V4.89154L3.45433 4.57L3.26922 4.42308L3.74211 3.95615L4.01511 4.19L4.27022 3.93769L3.99722 3.66769L3.80588 3.85692L3.30733 3.36385L3.49399 3.17923L3.11133 2.83692V2.54769ZM3.11133 6.10615L3.73744 6.72462L3.56711 6.89308L3.81599 7.13923L3.98011 6.97692L4.49655 7.48769L3.98633 7.99308L3.77399 7.78231L3.54844 8.00462L3.73744 8.19077L3.11133 8.73769V8.44923L3.45433 8.12769L3.26922 7.98077L3.74211 7.51385L4.01511 7.74769L4.27022 7.49539L3.99722 7.22538L3.80588 7.41462L3.30733 6.92154L3.49399 6.73692L3.11133 6.39385V6.10615ZM3.11133 9.73538L3.73744 10.3546L3.56711 10.5231L3.81599 10.7692L3.98011 10.6069L4.49655 11.1177L3.98633 11.6223L3.77399 11.4123L3.54844 11.6346L3.73744 11.8208L3.11133 12.3677V12.0792L3.45433 11.7577L3.26922 11.6108L3.74211 11.1431L4.01511 11.3777L4.27022 11.1254L3.99722 10.8546L3.80588 11.0438L3.30733 10.5515L3.49399 10.3669L3.11133 10.0238V9.73538ZM3.11133 13.3169L3.73744 13.9362L3.56711 14.1046L3.81599 14.3508L3.98011 14.1885L4.49655 14.6992L3.98633 15.2046L3.77399 14.9938L3.54844 15.2162L3.73744 15.4023L3.11133 15.9492V15.6608L3.45433 15.3392L3.26922 15.1923L3.74211 14.7254L4.01511 14.9592L4.27022 14.7069L3.99722 14.4369L3.80588 14.6262L3.30733 14.1331L3.49399 13.9485L3.11133 13.6062V13.3169ZM8.55577 2.54769L7.92966 3.16692L8.09999 3.33539L7.85111 3.58154L7.687 3.41923L7.17055 3.93L7.68077 4.43538L7.89311 4.22462L8.11866 4.44692L7.92966 4.63308L8.55577 5.18V4.89154L8.21277 4.57L8.39788 4.42308L7.92499 3.95615L7.65199 4.19L7.39688 3.93769L7.66988 3.66769L7.86122 3.85692L8.35977 3.36385L8.17311 3.17923L8.55577 2.83692V2.54769ZM3.54844 0.529231L3.77399 0.306154L3.98633 0.516923L4.49655 0.0123075L4.48488 0H4.25077L4.27022 0.0192308L4.01511 0.272308L3.74211 0.0376921L3.26922 0.504615L3.45433 0.652308L3.11133 0.973846V1.26231L3.73744 0.715384L3.54844 0.529231ZM8.39788 0.504615L7.92499 0.0376921L7.65199 0.272308L7.39688 0.0192308L7.41633 0H7.18222L7.17055 0.0123075L7.68077 0.516923L7.89311 0.306154L8.11866 0.529231L7.92966 0.715384L8.55577 1.26231V0.973846L8.21277 0.652308L8.39788 0.504615ZM8.55577 6.10615L7.92966 6.72462L8.09999 6.89308L7.85111 7.13923L7.687 6.97692L7.17055 7.48769L7.68077 7.99308L7.89311 7.78231L8.11866 8.00462L7.92966 8.19077L8.55577 8.73769V8.44923L8.21277 8.12769L8.39788 7.98077L7.92499 7.51385L7.65199 7.74769L7.39688 7.49539L7.66988 7.22538L7.86122 7.41462L8.35977 6.92154L8.17311 6.73692L8.55577 6.39385V6.10615ZM8.55577 9.73538L7.92966 10.3546L8.09999 10.5231L7.85111 10.7692L7.687 10.6069L7.17055 11.1177L7.68077 11.6223L7.89311 11.4123L8.11866 11.6346L7.92966 11.8208L8.55577 12.3677V12.0792L8.21277 11.7577L8.39788 11.6108L7.92499 11.1431L7.65199 11.3777L7.39688 11.1254L7.66988 10.8546L7.86122 11.0438L8.35977 10.5515L8.17311 10.3669L8.55577 10.0238V9.73538ZM8.55577 13.3169L7.92966 13.9362L8.09999 14.1046L7.85111 14.3508L7.687 14.1885L7.17055 14.6992L7.68077 15.2046L7.89311 14.9938L8.11866 15.2162L7.92966 15.4023L8.55577 15.9492V15.6608L8.21277 15.3392L8.39788 15.1923L7.92499 14.7254L7.65199 14.9592L7.39688 14.7069L7.66988 14.4369L7.86122 14.6262L8.35977 14.1331L8.17311 13.9485L8.55577 13.6062V13.3169Z" fill="#FAAE29"/>
<path d="M7.79399 1.49073V1.18611L7.34055 0.913805H6.99988L6.44922 0.630728H5.21722L4.66655 0.913805H4.32588L3.87244 1.18611V1.49073L3.45166 1.74688V2.45227L3.87244 2.70842V3.01304L4.32588 3.28534H4.66655L5.21722 3.56842H6.44922L6.99988 3.28534H7.34055L7.79399 3.01304V2.70842L8.21477 2.45227V1.74688L7.79399 1.49073Z" fill="#29AE66"/>
<path d="M3.83301 2.09846V1.79769L4.19234 1.57846V1.31923L4.57967 1.08615H4.87056L5.34034 0.845385H5.86612V2.09846H3.83301Z" fill="#FAAE29"/>
<path d="M3.80127 2.09919V2.40073L4.1606 2.61919V2.87919L4.54794 3.1115H4.83805L5.3086 3.35227H5.8336V2.09919H3.80127ZM7.86594 2.09919V1.79842L7.5066 1.57996V1.31996L7.11927 1.08766H6.82916L6.3586 0.846886H5.8336V2.09919H7.86594Z" fill="white"/>
<path d="M7.86579 2.09923V2.40077L7.50645 2.61923V2.87923L7.11912 3.11154H6.82901L6.35845 3.35231H5.83345V2.09923H7.86579ZM3.83301 5.0477H4.35879V5.60846H3.83301V5.0477ZM4.35879 4.96769H4.88456V5.52846H4.35879V4.96769ZM4.88534 4.76769H5.41112V5.32846H4.88534V4.76769ZM7.32367 5.0477H7.84945V5.60846H7.32367V5.0477ZM6.79712 4.96769H7.3229V5.52846H6.79712V4.96769ZM6.27056 4.76769H6.79634V5.32846H6.27056V4.76769Z" fill="#FAAE29"/>
<path d="M5.4119 4.48693H6.27134V5.18001H5.4119V4.48693ZM3.83301 5.75693H4.35879V6.3177H3.83301V5.75693ZM4.35879 5.83693H4.88456V6.3977H4.35879V5.83693ZM4.88534 6.0377H5.41112V6.59847H4.88534V6.0377ZM7.32367 5.75693H7.84945V6.3177H7.32367V5.75693ZM6.79712 5.83693H7.3229V6.3977H6.79712V5.83693ZM6.27056 6.0377H6.79634V6.59847H6.27056V6.0377Z" fill="#FAAE29"/>
<path d="M5.41162 6.18615H6.27107V6.87923H5.41162V6.18615Z" fill="#FAAE29"/>
<path d="M6.64913 15.0831H5.04846L3.91602 15.8V16.8123L5.04846 17.5285H6.64913L7.78157 16.8123V15.8L6.64913 15.0831Z" fill="white"/>
<path d="M6.52005 8.18923H5.17761L4.22794 8.85077V9.78692L5.17761 10.4485H6.52083L7.47049 9.78692V8.85077L6.52005 8.18923ZM7.0925 9.67846L6.36372 10.1862H5.33394L4.60516 9.67846V8.96L5.33394 8.45231H6.36372L7.0925 8.96V9.67846ZM6.68338 15.0323H5.01427L3.83438 15.7792V16.8338L5.01427 17.58H6.68261L7.8625 16.8338V15.7792L6.68338 15.0323ZM7.50705 16.7408L6.53483 17.3554H5.16205L4.18983 16.7408V15.8715L5.16205 15.2569H6.53561L7.50783 15.8715L7.50705 16.7408ZM7.58638 12.6446V12.3038H7.24261V11.9246H4.44805V12.3038H4.06383V12.6446H3.72705V13.1415H4.06383V13.51H4.44805V13.9108H7.24338V13.51H7.58638V13.1415H7.9885V12.6446H7.58638ZM7.05983 13.7015H4.63472V12.0985H7.05983V13.7015Z" fill="#29AE66"/>
<path d="M5.83355 11.7308L4.35889 12.5962V13.1569L5.83355 14.1031L7.32378 13.1892V12.5962L5.83355 11.7308Z" fill="#29AE66"/>
<path d="M5.17285 15.9739L5.83318 15.5962L6.49274 15.9739V16.7269L5.83318 17.1031L5.17285 16.7269V15.9739Z" fill="#CA3745"/>
<path d="M6.49292 19.2954L6.30314 19.4231C6.30314 19.4231 6.14136 19.1185 5.70348 19.0862C5.26559 19.0539 5.02292 19.2308 4.65036 19.2546C4.27781 19.2785 3.12981 18.4192 3.72636 17.1031C4.26148 17.4839 3.98381 17.9485 4.22803 18.1731C4.47225 18.3977 4.7297 18.55 4.82848 18.8146C4.92803 19.0792 5.39314 18.86 5.70348 18.9108C6.18959 18.9908 6.49292 19.2954 6.49292 19.2954Z" fill="#FAAE29"/>
<path d="M5.17285 19.2954L5.36263 19.4231C5.36263 19.4231 5.52441 19.1185 5.9623 19.0862C6.40018 19.0539 6.64363 19.2308 7.01618 19.2546C7.38874 19.2785 8.53674 18.4192 7.93941 17.1031C7.40507 17.4839 7.68196 17.9485 7.43774 18.1731C7.19352 18.3977 6.93607 18.55 6.8373 18.8146C6.73774 19.0792 6.27263 18.86 5.9623 18.9108C5.47618 18.9908 5.17285 19.2954 5.17285 19.2954Z" fill="#FAAE29"/>
<path d="M14.14 2.53C14.4003 2.75019 14.6093 3.02336 14.753 3.33084C14.8966 3.63831 14.9714 3.97284 14.9723 4.31154C14.9723 5.61923 13.9005 6.67923 12.5783 6.67923C12.1411 6.67758 11.7128 6.55645 11.3408 6.32923C11.5667 6.57537 11.8421 6.77216 12.1494 6.907C12.4566 7.04185 12.7889 7.11177 13.125 7.11231C13.7697 7.11231 14.3879 6.85905 14.8437 6.40824C15.2995 5.95743 15.5556 5.346 15.5556 4.70846C15.5556 3.73923 14.9738 2.91077 14.14 2.53ZM12.3247 2.20539L12.1334 2.57693L12.4313 2.87231L12.0152 2.80693L11.823 3.17846L11.7577 2.76693L11.3408 2.70154L11.7165 2.51231L11.6504 2.09923L11.949 2.39462L12.3247 2.20539Z" fill="white"/>
<path d="M13.5155 2.91922L13.3242 3.29076L13.6229 3.58614L13.206 3.52076L13.0139 3.89229L12.9485 3.47999L12.5316 3.4146L12.9073 3.22537L12.842 2.81306L13.1399 3.10845L13.5155 2.91922ZM12.3247 3.43076L12.1334 3.80229L12.4313 4.09768L12.0152 4.03229L11.8231 4.40383L11.7577 3.99152L11.3409 3.92614L11.7165 3.73691L11.6504 3.3246L11.9491 3.61999L12.3247 3.43076ZM11.085 4.05306L10.8936 4.4246L11.1923 4.71999L10.7754 4.6546L10.5833 5.02691L10.518 4.6146L10.1011 4.54922L10.4767 4.35999L10.4114 3.94768L10.7093 4.24306L11.085 4.05306ZM12.3247 4.74691L12.1334 5.11845L12.4313 5.41383L12.0152 5.34845L11.8231 5.71999L11.7577 5.30768L11.3409 5.24229L11.7165 5.05306L11.6504 4.64076L11.9491 4.93614L12.3247 4.74691Z" fill="white"/>
<path d="M5.49268 12.1315H6.20434V12.6046H5.49268V12.1315ZM5.49268 13.2092H6.20434V13.6823H5.49268V13.2092Z" fill="#CA3745"/>
<path d="M4.35889 12.68H5.33344V13.1531H4.35889V12.68ZM6.36866 12.68H7.32378V13.1531H6.36866V12.68Z" fill="#FAAE29"/>
</g>
<defs>
<clipPath id="clip0_2004_1423">
<rect width="28" height="20" rx="4" fill="white"/>
</clipPath>
</defs>
</svg>
