<svg width="50" height="50" viewBox="0 0 50 50" fill="none" xmlns="http://www.w3.org/2000/svg">
<path fillRule="evenodd" clip-rule="evenodd" d="M25.5556 11.4445C13.8889 12.5556 7.22223 20.3333 7.77779 43.6667H33.3333C33.3333 33.6667 22.2222 36.4445 24.4445 20.3333" fill="#401D09"/>
<path d="M25.5556 11.4445C13.8889 12.5556 7.22223 20.3333 7.77779 43.6667H33.3333C33.3333 33.6667 22.2222 36.4445 24.4445 20.3333" stroke="#401D09" stroke-width="1.5" stroke-linecap="round" stroke-linejoin="round"/>
<path fillRule="evenodd" clip-rule="evenodd" d="M23.3333 20.3333C22.9111 23.5666 29.5 28.5222 32.2222 30.3333C35.5556 32.5555 35.3556 35.1555 37.7778 34.7777C38.9356 33.7333 36.2111 31.4 37.7778 31.4444C38.8889 31.4444 37.5667 32.8111 38.8889 33.6666C40 33.6666 43.3367 34.7777 43.3333 29.2222C43.3333 27 36.6667 15.8889 36.6667 15.8889C36.6667 15.8889 34.5667 13.7778 34.4445 12C35.2556 10.8955 35 9.77775 35 8.66664C33.8889 7.55553 31.6667 11.4444 31.6667 11.4444H29.4445C29.4445 11.4444 28.5778 9.23108 26.6667 8.11108C25.5556 8.11108 25.5556 11.4444 25.5556 11.4444" fill="#401D09"/>
<path d="M23.3333 20.3333C22.9111 23.5666 29.5 28.5222 32.2222 30.3333C35.5556 32.5555 35.3556 35.1555 37.7778 34.7777C38.9356 33.7333 36.2111 31.4 37.7778 31.4444C38.8889 31.4444 37.5667 32.8111 38.8889 33.6666C40 33.6666 43.3367 34.7777 43.3333 29.2222C43.3333 27 36.6667 15.8889 36.6667 15.8889C36.6667 15.8889 34.5667 13.7778 34.4445 12C35.2556 10.8955 35 9.77775 35 8.66664C33.8889 7.55553 31.6667 11.4444 31.6667 11.4444H29.4445C29.4445 11.4444 28.5778 9.23108 26.6667 8.11108C25.5556 8.11108 25.5556 11.4444 25.5556 11.4444" stroke="#401D09" stroke-width="1.5" stroke-linecap="round" stroke-linejoin="round"/>
<path fillRule="evenodd" clip-rule="evenodd" d="M39.4445 28.6666C39.4445 28.814 39.503 28.9553 39.6072 29.0595C39.7114 29.1637 39.8527 29.2222 40 29.2222C40.1474 29.2222 40.2887 29.1637 40.3929 29.0595C40.497 28.9553 40.5556 28.814 40.5556 28.6666C40.5556 28.5193 40.497 28.378 40.3929 28.2738C40.2887 28.1696 40.1474 28.1111 40 28.1111C39.8527 28.1111 39.7114 28.1696 39.6072 28.2738C39.503 28.378 39.4445 28.5193 39.4445 28.6666Z" fill="white" stroke="white" stroke-width="1.5" stroke-linecap="round" stroke-linejoin="round"/>
<path fillRule="evenodd" clip-rule="evenodd" d="M33.4078 17.8334C33.6288 18.2162 33.8915 18.554 34.138 18.7726C34.3845 18.9912 34.5946 19.0726 34.7222 18.9989C34.8498 18.9252 34.8844 18.7025 34.8184 18.3798C34.7523 18.057 34.591 17.6606 34.37 17.2778C34.149 16.895 33.8864 16.5572 33.6398 16.3386C33.3933 16.12 33.1832 16.0386 33.0556 16.1123C32.928 16.1859 32.8934 16.4086 32.9595 16.7314C33.0255 17.0542 33.1868 17.4506 33.4078 17.8334Z" fill="white" stroke="white" stroke-width="1.5" stroke-linecap="round" stroke-linejoin="round"/>
<path fillRule="evenodd" clip-rule="evenodd" d="M22.7222 11.8889L23.2222 13.5L22.6667 13.6667C19.1667 14.7778 16.3889 16.4334 13.8889 21.1667C11.3889 25.9 10.2778 32.6222 10.8333 43.6667L10.8889 44.2222H8.38889L8.33334 43.6667C7.77778 32.4889 9.31112 24.9445 11.9445 19.9556C14.5778 14.9667 18.3778 12.5778 22.1556 12L22.7222 11.8889Z" fill="white"/>
</svg>
